<svg width="1244" height="497" viewBox="0 0 1244 497" fill="none" xmlns="http://www.w3.org/2000/svg">
<path d="M377.3 161.33L318.532 76.438C314.176 70.1593 308.387 65.009 301.644 61.4138C294.901 57.8187 287.398 55.8823 279.757 55.765L168.23 54.165H168C110.421 54.165 66.243 63.796 37.79 110.799C11.3 154.551 0 229.08 0 360V376H36.557L13.024 496H45.634L69.167 376H80C106.132 376.233 131.307 366.179 150.088 348.008C167.067 331.762 179.314 309.536 185.507 283.734L185.563 283.502L213.006 152H180.316L154.337 276.488C146.425 309.168 122.766 344 80 344H32.06C32.929 230.734 43.242 163.581 65.165 127.366C83.565 96.966 110.46 86.175 167.889 86.16L279.297 87.76C281.844 87.7988 284.345 88.4441 286.593 89.6425C288.841 90.8409 290.77 92.5579 292.222 94.651L358.7 190.67L448 205.554V222.513L433.108 301.934C428.713 325.375 421.2 337.183 390.39 340.884L264.084 362.493L263.249 496H295.249L295.916 389.507L394.616 372.607C416.976 369.858 433.473 362.652 445.042 350.584C454.932 340.266 460.951 327.084 464.561 307.832L480 225.487V178.446L377.3 161.33Z" fill="white"/>
<path fill-rule="evenodd" clip-rule="evenodd" d="M635.285 52.2412H710.961V366.052H603V334.289H678.676V73.174H603V0H710.961V31.2173H635.285V52.2412ZM844.241 0V366.052H811.957V31.3083H768.565V366.052H736.28V0H844.241ZM977.427 0V366.052H869.467V0H977.427ZM901.657 31.3083V334.289H945.143V31.3083H901.657ZM1110.52 0V366.052H1002.56V0H1110.52ZM1034.84 31.3083V334.289H1078.23V31.3083H1034.84ZM1243.8 0V94.1979H1168.03V366.052H1135.75V0H1243.8ZM1168.12 31.3083V62.5256H1211.52V31.3083H1168.12Z" fill="white"/>
<path fill-rule="evenodd" clip-rule="evenodd" d="M1020.91 391.263V496.2H989.945V451.24H999.17V487.19H1011.69V400.182H989.945V391.263H1020.91ZM1059.13 391.263V496.2H1028.16V391.263H1059.13ZM1037.38 400.182V487.099H1049.81V400.182H1037.38ZM1097.34 400.182H1075.6V487.19H1088.12V412.196H1081.81V406.189H1097.34V496.2H1066.37V391.263H1097.34V400.182ZM1135.56 391.172V496.109H1104.59V391.172H1135.56ZM1113.81 400.182V487.008H1126.24V400.182H1113.81ZM1152.03 406.189H1173.77V496.109H1142.8V487.008H1164.45V412.196H1142.8V391.172H1173.77V400.182H1152.03V406.189Z" fill="white"/>
</svg>
